# AST/ASF file generated using VICON BodyLanguage
# -----------------------------------------------
:version 1.10
:name VICON
:units
  mass 1.0
  length 0.45
  angle deg
:documentation
   .ast/.asf automatically generated from VICON data using
   VICON BodyBuilder and BodyLanguage model FoxedUp or BRILLIANT.MOD
:root
   order TX TY TZ RX RY RZ
   axis XYZ
   position 0 0 0  
   orientation 0 0 0 
:bonedata
  begin
     id 1 
     name lhipjoint
     direction 0.716248 -0.617586 0.324924 
     length 2.63557 
     axis 0 0 0  XYZ
  end
  begin
     id 2 
     name lfemur
     direction 0.34202 -0.939693 0  
     length 7.01235  
     axis 0 0 20  XYZ
    dof rx ry rz
    limits (-160.0 20.0)
           (-70.0 70.0)
           (-60.0 70.0)
  end
  begin
     id 3 
     name ltibia
     direction 0.34202 -0.939693 0   
     length 8.14348   
     axis 0 0 20   XYZ
    dof rx
    limits (-10.0 170.0)
  end
  begin
     id 4 
     name lfoot
     direction 0.0982064 -0.26982 0.95789   
     length 1.99077   
     axis -90 7.62852e-016 20   XYZ
    dof rx rz
    limits (-45.0 90.0)
           (-70.0 20.0)
  end
  begin
     id 5 
     name ltoes
     direction 1.53511e-011 -4.21891e-011 1   
     length 0.99735   
     axis -90 7.62852e-016 20   XYZ
    dof rx
    limits (-90.0 20.0)
  end
  begin
     id 6 
     name rhipjoint
     direction -0.687828 -0.642391 0.337975   
     length 2.5338  
     axis 0 0 0  XYZ 
  end
  begin
     id 7 
     name rfemur
     direction -0.34202 -0.939693 0   
     length 6.90199   
     axis 0 0 -20   XYZ
    dof rx ry rz
    limits (-160.0 20.0)
           (-70.0 70.0)
           (-70.0 60.0)
  end
  begin
     id 8 
     name rtibia
     direction -0.34202 -0.939693 0   
     length 8.07725   
     axis 0 0 -20   XYZ
    dof rx
    limits (-10.0 170.0)
 end
 begin
     id 9 
     name rfoot
     direction -0.0912384 -0.250675 0.963762   
     length 2.11621  
     axis -90 -7.62852e-016 -20   XYZ
    dof rx rz
    limits (-45.0 90.0)
           (-20.0 70.0)
  end
  begin
     id 10 
     name rtoes
     direction -1.5359e-011 -4.21894e-011 1   
     length 1.06031   
     axis -90 -7.62852e-016 -20   XYZ
    dof rx
    limits (-90.0 20.0)
  end
  begin
     id 11 
     name lowerback
     direction -0.0403572 0.987953 -0.149396   
     length 2.05637   
     axis 0 0 0   XYZ
    dof rx ry rz
    limits (-20.0 45.0)
           (-30.0 30.0)
           (-30.0 30.0)
  end
  begin
     id 12 
     name upperback
     direction -0.00512151 0.997598 0.0690792   
     length 2.01086   
     axis 0 0 0   XYZ
    dof rx ry rz
    limits (-20.0 45.0)
           (-30.0 30.0)
           (-30.0 30.0)
  end
  begin
     id 13 
     name thorax
     direction 0.0136133 0.989392 0.14463   
     length 2.09035   
     axis 0 0 0   XYZ
    dof rx ry rz
    limits (-20.0 45.0)
           (-30.0 30.0)
           (-30.0 30.0)
  end
  begin
     id 14 
     name lowerneck
     direction 0.0250714 0.992811 0.11704   
     length 1.70806   
     axis 0 0 0   XYZ
    dof rx ry rz
    limits (-20.0 45.0)
           (-30.0 30.0)
           (-30.0 30.0)
  end
  begin
     id 15 
     name upperneck
     direction -0.0519205 0.998394 -0.0226787   
     length 1.6689   
     axis 0 0 0   XYZ
    dof rx ry rz
    limits (-20.0 45.0)
           (-30.0 30.0)
           (-30.0 30.0)
  end
  begin
     id 16
     name head
     direction -0.0201693 0.999547 -0.0223192  
     length 1.83412  
     axis 0 0 0   XYZ
    dof rx ry rz
    limits (-20.0 45.0)
           (-30.0 30.0)
           (-30.0 30.0)
  end
  begin
     id 17 
     name lclavicle
     direction 0.89585 0.444077 -0.0157448  
     length 3.39587  
     axis 0 0 0   XYZ
    dof ry rz
    limits (-20.0 10.0)
           (0.0 20.0)
  end
  begin
     id 18 
     name lhumerus
     direction 1 -4.48956e-011 1.99132e-028   
     length 5.79199   
     axis 180 -30 -90   XYZ
    dof rx ry rz
    limits (-60.0 90.0)
           (-90.0 90.0)
           (-90.0 90.0)
  end
  begin
     id 19
     name lradius
     direction 1 -4.48974e-011 8.72912e-028   
     length 3.49908   
     axis 180 -30 -90   XYZ
    dof rx
    limits (-10.0 170.0)
  end
  begin
     id 20
     name lwrist
     direction 1 -4.48994e-011 4.76442e-027   
     length 1.74954   
     axis -3.27502e-015 90 90   XYZ
    dof ry
    limits (-180.0 0.0)
 end
  begin
     id 21 
     name lhand
     direction 1 -4.48945e-011 9.531e-027   
     length 0.593861   
     axis -6.08098e-015 90 90   XYZ
    dof rx rz
    limits (-90.0 90.0)
           (-45.0 45.0)
  end
  begin
     id 22 
     name lfingers
     direction 1 -4.48945e-011 1.9062e-026   
     length 0.478786   
     axis -1.21619e-014 90 90   XYZ
    dof rx
    limits (0.0 90.0)
  end
  begin
     id 23
     name lthumb
     direction 0.707107 -6.34904e-011 0.707107   
     length 0.687444   
     axis -90 45 -9.86923e-015   XYZ
    dof rx rz
    limits (-45.0 45.0)
           (-45.0 45.0)
  end
  begin
     id 24 
     name rclavicle
     direction -0.940466 0.338394 0.0318182   
     length 3.51226  
     axis 0 0 0   XYZ 
    dof ry rz
    limits (-10.0 20.0)
           (-20.0 0.0)
  end
  begin
     id 25 
     name rhumerus
     direction -1 -4.48976e-011 2.0905e-027  
     length 5.73799   
     axis 180 30 90   XYZ
    dof rx ry rz
    limits (-90.0 60.0)
           (-90.0 90.0)
           (-90.0 90.0)
  end
  begin
     id 26 
     name rradius
     direction -1 -4.48968e-011 -9.39692e-029   
     length 3.57916   
     axis 180 30 90   XYZ
    dof rx
    limits (-10.0 170.0)
  end
  begin
     id 27 
     name rwrist
     direction -1 -4.48959e-011 4.7652e-027   
     length 1.78958   
     axis -3.27502e-015 -90 -90   XYZ
    dof ry
    limits (-180.0 0.0)
  end
  begin
     id 28
     name rhand
     direction -1 -4.49042e-011 9.5267e-027   
     length 0.615577   
     axis -6.08098e-015 -90 -90   XYZ
    dof rx rz
    limits (-90.0 90.0)
           (-45.0 45.0)
  end
  begin
     id 29
     name rfingers
     direction -1 -4.48935e-011 1.90629e-026   
     length 0.496294   
     axis -1.21619e-014 -90 -90   XYZ
    dof rx
    limits (0.0 90.0)
  end
  begin
     id 30
     name rthumb
     direction -0.707107 -6.34977e-011 0.707107   
     length 0.712582   
     axis -90 -45 9.86923e-015   XYZ
    dof rx rz
    limits (-45.0 45.0)
           (-45.0 45.0)
  end
:hierarchy
  begin
    root lhipjoint rhipjoint lowerback
    lhipjoint lfemur
    lfemur ltibia
    ltibia lfoot
    lfoot ltoes
    rhipjoint rfemur
    rfemur rtibia
    rtibia rfoot
    rfoot rtoes
    lowerback upperback
    upperback thorax
    thorax lowerneck lclavicle rclavicle
    lowerneck upperneck
    upperneck head
    lclavicle lhumerus
    lhumerus lradius
    lradius lwrist
    lwrist lhand lthumb
    lhand lfingers
    rclavicle rhumerus
    rhumerus rradius
    rradius rwrist
    rwrist rhand rthumb
    rhand rfingers
  end

#!OML:ASF H:\Terrain\Patient Classification 1\PaulMetrics\March17Take5\PaulMetrics.ASF
:FULLY-SPECIFIED
:DEGREES
2991
root 15.0671 17.5668 -14.9162 -0.159015 -60.8613 8.38309
lowerback 1.62133 0.311372 -7.22601
upperback -4.21008 -0.038372 -1.78917
thorax -5.30601 0.214201 2.18606
lowerneck -6.83522 -2.55011 -2.63082
upperneck 6.24159 -3.04908 -1.49241
head 3.22794 -1.64072 -0.176807
rclavicle 7.89548e-015 -1.74931e-014
rhumerus -2.47142 2.15978 -49.3533
rradius 119.399
rwrist -38.8022
rhand -18.5031 -26.1075
rfingers 7.12502
rthumb 7.78475 -55.9442
lclavicle 7.89548e-015 -1.74931e-014
lhumerus -36.2098 -7.36042 76.7106
lradius 39.1436
lwrist 15.9067
lhand -14.5844 -26.4329
lfingers 7.12502
lthumb 11.5656 3.22803
rfemur -7.54085 15.0141 11.224
rtibia 17.2165
rfoot -18.8341 -27.7291
rtoes -4.72025
lfemur -14.0651 -2.56668 -16.6705
ltibia 21.6408
lfoot -16.5509 15.1473
ltoes -4.9449
2992
root 15.0688 17.5949 -14.9088 0.246772 -60.8418 7.94183
lowerback 1.6936 0.155683 -7.08903
upperback -4.29335 -0.248714 -1.71925
thorax -5.41468 0.111036 2.19542
lowerneck -6.85619 -2.38657 -2.19157
upperneck 6.30755 -2.84831 -1.81834
head 3.24036 -1.54445 -0.350136
rclavicle 3.20416e-014 -4.77083e-015
rhumerus -2.44287 2.51023 -49.6795
rradius 119.528
rwrist -38.6545
rhand -18.0623 -26.1575
rfingers 7.12502
rthumb 8.21017 -55.978
lclavicle 3.20416e-014 -4.77083e-015
lhumerus -36.4929 -7.16872 76.5115
lradius 39.4052
lwrist 16.054
lhand -14.4899 -26.6236
lfingers 7.12502
lthumb 11.6567 3.0321
rfemur -7.44188 16.5226 11.114
rtibia 17.2063
rfoot -23.3087 -26.2019
rtoes 11.4916
lfemur -14.0874 -2.37842 -16.5002
ltibia 21.6367
lfoot -16.5328 15.5282
ltoes -5.87824
2993
root 15.0767 17.5678 -14.8987 0.515221 -60.8215 7.65371
lowerback 1.67244 0.161203 -6.89846
upperback -4.30217 -0.230821 -1.71694
thorax -5.41165 0.112193 2.09064
lowerneck -7.02781 -2.34397 -2.04281
upperneck 6.52124 -2.78704 -1.95572
head 3.34285 -1.51941 -0.423086
rclavicle 2.23757e-014 2.78299e-015
rhumerus -2.51939 2.63096 -49.931
rradius 119.538
rwrist -38.2332
rhand -17.8742 -26.5009
rfingers 7.12502
rthumb 8.39177 -56.3142
lclavicle 2.23757e-014 2.78299e-015
lhumerus -36.4697 -7.30247 76.5115
lradius 39.4692
lwrist 16.1529
lhand -14.3721 -26.8486
lfingers 7.12502
lthumb 11.7703 2.80067
rfemur -7.56819 15.2532 11.3933
rtibia 17.31
rfoot -21.0903 -26.641
rtoes 4.40059
lfemur -14.0942 -2.46208 -16.3453
ltibia 21.6205
lfoot -16.6384 15.5638
ltoes -4.57865
2994
root 15.0874 17.5487 -14.8861 -0.425028 -60.9191 8.65123
lowerback 1.75298 0.32267 -7.19235
upperback -4.27879 -0.0455529 -1.89514
thorax -5.45353 0.211695 2.0564
lowerneck -7.03615 -2.38357 -2.4178
upperneck 6.53223 -2.82287 -1.67065
head 3.35937 -1.53512 -0.266831
rclavicle -2.22452e-014 -1.35174e-014
rhumerus -2.66579 2.61577 -50.0791
rradius 119.422
rwrist -37.6855
rhand -17.9626 -26.7595
rfingers 7.12502
rthumb 8.3064 -56.5762
lclavicle -2.22452e-014 -1.35174e-014
lhumerus -36.321 -7.52869 76.692
lradius 39.4301
lwrist 16.0947
lhand -14.3423 -26.8625
lfingers 7.12502
lthumb 11.7991 2.78508
rfemur -7.60331 14.5012 10.8895
rtibia 17.3848
rfoot -19.8466 -26.5025
rtoes 0.902819
lfemur -13.9815 -2.66931 -16.8854
ltibia 21.6858
lfoot -17.0625 15.0943
ltoes -0.461792
2995
root 15.102 17.5475 -14.8696 -1.6596 -61.0726 9.95797
lowerback 1.83933 0.390287 -7.61052
upperback -4.20937 0.00981234 -2.07565
thorax -5.44054 0.249128 2.09704
lowerneck -7.06273 -2.36481 -2.62933
upperneck 6.37484 -2.78809 -1.53044
head 3.31584 -1.51539 -0.18109
rclavicle -5.00006e-014 1.11319e-014
rhumerus -2.62568 2.80334 -50.2181
rradius 119.418
rwrist -37.4482
rhand -18.4596 -27.0613
rfingers 7.12502
rthumb 7.8268 -56.8965
lclavicle -5.00006e-014 1.11319e-014
lhumerus -36.1922 -7.29842 76.6915
lradius 39.4042
lwrist 15.7277
lhand -14.2979 -26.803
lfingers 7.12502
lthumb 11.8418 2.8422
rfemur -7.60551 14.0781 10.1149
rtibia 17.3966
rfoot -19.1292 -25.9914
rtoes -0.135644
lfemur -13.9781 -2.64412 -17.652
ltibia 21.9594
lfoot -17.1029 14.8098
ltoes -1.39588
2996
root 15.1131 17.5432 -14.8624 -1.45565 -61.1602 9.79087
lowerback 1.78704 0.359237 -7.47535
upperback -4.1885 -0.0156374 -2.03175
thorax -5.38395 0.23022 2.06991
lowerneck -7.20877 -2.3181 -2.5817
upperneck 6.39182 -2.71695 -1.63683
head 3.34711 -1.4841 -0.222708
rclavicle -2.15619e-014 -2.0276e-014
rhumerus -2.65065 3.14099 -50.4017
rradius 119.56
rwrist -37.5199
rhand -19.0495 -27.0923
rfingers 7.12502
rthumb 7.2574 -56.9479
lclavicle -2.15619e-014 -2.0276e-014
lhumerus -36.1309 -6.97589 76.6399
lradius 39.4491
lwrist 15.4092
lhand -14.2621 -26.8688
lfingers 7.12502
lthumb 11.8764 2.77442
rfemur -7.82844 13.7215 10.1879
rtibia 17.5484
rfoot -18.3305 -26.0935
rtoes -3.35724
lfemur -14.1464 -2.45904 -17.5994
ltibia 22.0669
lfoot -16.5519 14.8916
ltoes -4.85764
2997
root 15.1193 17.5386 -14.8612 -0.720981 -61.1803 9.04015
lowerback 1.74454 0.352625 -7.13509
upperback -4.20287 0.00145802 -1.92897
thorax -5.37152 0.227989 1.98698
lowerneck -7.16723 -2.34456 -2.41939
upperneck 6.20843 -2.76441 -1.75894
head 3.27089 -1.50588 -0.290546
rclavicle -3.34424e-014 7.55382e-015
rhumerus -2.94344 3.44613 -50.5767
rradius 119.736
rwrist -37.6587
rhand -19.5123 -26.8217
rfingers 7.12502
rthumb 6.8106 -56.6922
lclavicle -3.34424e-014 7.55382e-015
lhumerus -36.0881 -6.87741 76.6332
lradius 39.5271
lwrist 15.2351
lhand -14.1448 -27.0281
lfingers 7.12502
lthumb 11.9895 2.60849
rfemur -7.98615 13.6926 10.5664
rtibia 17.6174
rfoot -18.3347 -26.25
rtoes -4.71796
lfemur -14.3086 -2.34881 -17.1835
ltibia 22.187
lfoot -16.9166 14.5811
ltoes -1.25633
2998
root 15.1239 17.5373 -14.8548 -0.556213 -61.2297 8.79467
lowerback 1.75592 0.379806 -6.95325
upperback -4.16534 0.0474737 -1.94345
thorax -5.33966 0.241652 1.86818
lowerneck -6.80755 -2.33015 -2.43539
upperneck 5.71507 -2.77752 -1.56286
head 3.0352 -1.49689 -0.213964
rclavicle -2.34814e-015 4.17448e-014
rhumerus -3.30484 3.73966 -50.705
rradius 119.905
rwrist -37.6469
rhand -19.9034 -26.8651
rfingers 7.12502
rthumb 6.43304 -56.7474
lclavicle -2.34814e-015 4.17448e-014
lhumerus -35.9651 -6.69083 76.5543
lradius 39.4716
lwrist 14.8251
lhand -14.1436 -27.2577
lfingers 7.12502
lthumb 11.9906 2.37884
rfemur -7.96833 13.7043 10.6603
rtibia 17.5502
rfoot -17.8289 -26.3516
rtoes -6.43318
lfemur -14.3097 -2.32003 -17.0568
ltibia 22.362
lfoot -17.6875 14.4349
ltoes 1.48252
2999
root 15.1235 17.5258 -14.8349 -1.22937 -61.0247 9.58416
lowerback 1.60013 0.341077 -7.19604
upperback -4.1393 -0.009 -2.09508
thorax -5.22131 0.214625 1.84972
lowerneck -6.52074 -2.27464 -2.58005
upperneck 5.42877 -2.72089 -1.30406
head 2.88914 -1.45754 -0.0959167
rclavicle -3.57502e-014 1.47101e-014
rhumerus -3.73311 3.96507 -50.6318
rradius 120.229
rwrist -37.6341
rhand -19.6906 -27.3736
rfingers 7.12502
rthumb 6.63855 -57.2495
lclavicle -3.57502e-014 1.47101e-014
lhumerus -35.9237 -6.78029 76.6409
lradius 39.4841
lwrist 14.8482
lhand -14.3643 -27.3601
lfingers 7.12502
lthumb 11.7778 2.28874
rfemur -7.90512 12.5658 10.1863
rtibia 17.5425
rfoot -16.4281 -26.1436
rtoes -11.6267
lfemur -14.2801 -2.54209 -17.5843
ltibia 22.4235
lfoot -17.9514 14.6714
ltoes 0.505645
3000
root 15.1324 17.5269 -14.8106 -1.73649 -60.455 10.1337
lowerback 1.61836 0.173662 -7.22721
upperback -4.08746 -0.237846 -2.19572
thorax -5.15779 0.0968316 1.77678
lowerneck -6.54592 -2.25345 -2.46149
upperneck 5.35938 -2.69426 -1.45187
head 2.86574 -1.44643 -0.162435
rclavicle -4.26145e-015 -7.95139e-016
rhumerus -4.10832 4.21754 -50.5142
rradius 120.614
rwrist -37.6157
rhand -19.3988 -28.0318
rfingers 7.12502
rthumb 6.92016 -57.8987
lclavicle -4.26145e-015 -7.95139e-016
lhumerus -35.9195 -7.0437 76.856
lradius 39.5884
lwrist 15.3335
lhand -14.4832 -27.2593
lfingers 7.12502
lthumb 11.6632 2.3961
rfemur -7.65266 10.4636 9.64013
rtibia 17.6699
rfoot -16.6749 -24.5413
rtoes -11.2836
lfemur -14.1152 -2.78936 -18.1559
ltibia 22.2563
lfoot -17.7247 14.3656
ltoes 1.1732
